<svg width="34" height="41" viewBox="0 0 34 41" fill="none" xmlns="http://www.w3.org/2000/svg">
<path d="M18.3476 1.26752C17.5717 0.59377 16.408 0.59377 15.6322 1.26752C5.66883 10.0467 0.666748 17.6825 0.666748 24.175C0.666748 34.3425 8.42508 40.9167 17.0001 40.9167C25.5751 40.9167 33.3334 34.3425 33.3334 24.175C33.3334 17.6825 28.3313 10.0467 18.3476 1.26752ZM8.48633 24.5834C9.24175 24.5834 9.85425 25.1142 9.99716 25.8492C10.8342 30.3817 14.6522 31.9334 17.4288 31.7088C18.3067 31.6679 19.0417 32.3621 19.0417 33.24C19.0417 34.0567 18.3884 34.7304 17.5717 34.7713C13.223 35.0367 8.13925 32.5459 6.9755 26.3596C6.94002 26.1407 6.9525 25.9167 7.0121 25.7031C7.07169 25.4895 7.17696 25.2914 7.32063 25.1225C7.46431 24.9536 7.64296 24.8179 7.84422 24.7248C8.04549 24.6317 8.26458 24.5835 8.48633 24.5834V24.5834Z" fill="white"/>
</svg>
