<svg width="457" height="40" viewBox="0 0 457 40" fill="none" xmlns="http://www.w3.org/2000/svg">
<path d="M77.5659 3.85109V39.5379H71.6784V15.0963L60.7298 39.5379H56.6499L45.6496 15.0963V39.5379H39.7622V3.85109H46.1144L58.7157 31.8357L71.2653 3.85109H77.5659Z" fill="white"/>
<path d="M80.2429 25.2632C80.2429 22.4219 80.8282 19.9059 81.9988 17.715C83.2039 15.5242 84.822 13.8297 86.8534 12.6316C88.9192 11.3992 91.1915 10.7831 93.6704 10.7831C95.9084 10.7831 97.8536 11.2281 99.5063 12.1181C101.193 12.9739 102.536 14.0522 103.535 15.353V11.2452H109.474V39.5379H103.535V35.3273C102.536 36.6624 101.176 37.7749 99.4546 38.665C97.7331 39.555 95.7707 40 93.5672 40C91.1227 40 88.8847 39.3838 86.8534 38.1515C84.822 36.8849 83.2039 35.1391 81.9988 32.914C80.8282 30.6547 80.2429 28.1044 80.2429 25.2632ZM103.535 25.3659C103.535 23.4146 103.121 21.7202 102.295 20.2824C101.503 18.8447 100.453 17.7493 99.1448 16.9962C97.8364 16.243 96.4248 15.8665 94.9099 15.8665C93.395 15.8665 91.9834 16.243 90.6751 16.9962C89.3668 17.715 88.2994 18.7933 87.4731 20.2311C86.6812 21.6346 86.2853 23.3119 86.2853 25.2632C86.2853 27.2144 86.6812 28.926 87.4731 30.3979C88.2994 31.8699 89.3668 32.9996 90.6751 33.7869C92.0178 34.54 93.4294 34.9166 94.9099 34.9166C96.4248 34.9166 97.8364 34.54 99.1448 33.7869C100.453 33.0338 101.503 31.9384 102.295 30.5006C103.121 29.0287 103.535 27.3171 103.535 25.3659Z" fill="white"/>
<path d="M120.977 16.0205V31.6816C120.977 32.7428 121.218 33.5131 121.7 33.9923C122.216 34.4373 123.077 34.6598 124.282 34.6598H127.897V39.5379H123.249C120.598 39.5379 118.567 38.9217 117.155 37.6893C115.743 36.457 115.038 34.4544 115.038 31.6816V16.0205H111.681V11.2452H115.038V4.21053H120.977V11.2452H127.897V16.0205H120.977Z" fill="white"/>
<path d="M144.943 10.7831C147.112 10.7831 149.04 11.2452 150.727 12.1694C152.449 13.0937 153.792 14.463 154.756 16.2773C155.754 18.0916 156.253 20.2824 156.253 22.8498V39.5379H150.418V23.7227C150.418 21.1896 149.781 19.2555 148.507 17.9204C147.233 16.5511 145.494 15.8665 143.291 15.8665C141.087 15.8665 139.331 16.5511 138.023 17.9204C136.749 19.2555 136.112 21.1896 136.112 23.7227V39.5379H130.225V1.54044H136.112V14.5315C137.111 13.3333 138.367 12.4091 139.882 11.7587C141.431 11.1083 143.118 10.7831 144.943 10.7831Z" fill="white"/>
<path d="M186.745 24.6983C186.745 25.7595 186.676 26.718 186.538 27.5738H164.796C164.968 29.8331 165.812 31.6474 167.327 33.0167C168.842 34.386 170.701 35.0706 172.904 35.0706C176.072 35.0706 178.31 33.7527 179.618 31.1168H185.97C185.11 33.7184 183.543 35.8579 181.271 37.5353C179.033 39.1784 176.244 40 172.904 40C170.184 40 167.74 39.4009 165.571 38.2028C163.436 36.9705 161.749 35.2589 160.51 33.068C159.305 30.843 158.702 28.2756 158.702 25.3659C158.702 22.4561 159.287 19.9059 160.458 17.715C161.663 15.4899 163.333 13.7783 165.467 12.5802C167.637 11.3821 170.115 10.7831 172.904 10.7831C175.59 10.7831 177.983 11.365 180.083 12.5289C182.183 13.6928 183.818 15.3359 184.989 17.4583C186.16 19.5464 186.745 21.9598 186.745 24.6983ZM180.599 22.8498C180.565 20.6932 179.79 18.9645 178.275 17.6637C176.76 16.3629 174.884 15.7125 172.646 15.7125C170.615 15.7125 168.876 16.3629 167.43 17.6637C165.984 18.9303 165.123 20.659 164.848 22.8498H180.599Z" fill="white"/>
<path d="M215.211 11.2452V39.5379H209.323V36.2003C208.394 37.3641 207.171 38.2884 205.656 38.973C204.176 39.6234 202.592 39.9487 200.905 39.9487C198.667 39.9487 196.653 39.4865 194.863 38.5623C193.107 37.638 191.713 36.2687 190.68 34.4544C189.681 32.6401 189.182 30.4493 189.182 27.8819V11.2452H195.018V27.009C195.018 29.5421 195.655 31.4934 196.929 32.8626C198.202 34.1977 199.941 34.8652 202.145 34.8652C204.348 34.8652 206.087 34.1977 207.361 32.8626C208.669 31.4934 209.323 29.5421 209.323 27.009V11.2452H215.211Z" fill="white"/>
<path d="M230.209 40C227.971 40 225.957 39.6063 224.167 38.819C222.411 37.9974 221.016 36.902 219.983 35.5327C218.95 34.1292 218.4 32.5717 218.331 30.8601H224.425C224.528 32.0582 225.096 33.068 226.129 33.8896C227.196 34.6769 228.522 35.0706 230.106 35.0706C231.758 35.0706 233.032 34.7625 233.927 34.1463C234.857 33.4959 235.322 32.6744 235.322 31.6816C235.322 30.6205 234.805 29.8331 233.772 29.3196C232.774 28.8062 231.173 28.2413 228.97 27.6252C226.835 27.0432 225.096 26.4784 223.753 25.9307C222.411 25.383 221.24 24.5443 220.242 23.4146C219.278 22.285 218.796 20.7959 218.796 18.9474C218.796 17.4412 219.243 16.0719 220.138 14.8395C221.033 13.573 222.307 12.5802 223.96 11.8614C225.647 11.1425 227.575 10.7831 229.744 10.7831C232.981 10.7831 235.58 11.6046 237.542 13.2478C239.539 14.8567 240.607 17.0646 240.744 19.8716H234.857C234.754 18.6051 234.237 17.5952 233.308 16.8421C232.378 16.089 231.121 15.7125 229.538 15.7125C227.988 15.7125 226.8 16.0034 225.974 16.5854C225.148 17.1673 224.735 17.9375 224.735 18.896C224.735 19.6491 225.01 20.2824 225.561 20.7959C226.112 21.3094 226.783 21.7202 227.575 22.0282C228.367 22.3021 229.538 22.6615 231.087 23.1065C233.153 23.6543 234.84 24.2191 236.148 24.801C237.491 25.3487 238.644 26.1703 239.608 27.2657C240.572 28.3611 241.072 29.816 241.106 31.6303C241.106 33.2392 240.658 34.6769 239.763 35.9435C238.868 37.2101 237.594 38.2028 235.942 38.9217C234.323 39.6406 232.412 40 230.209 40Z" fill="white"/>
<path d="M282.173 3.85109V39.5379H276.285V15.0963L265.336 39.5379H261.257L250.256 15.0963V39.5379H244.369V3.85109H250.721L263.322 31.8357L275.872 3.85109H282.173Z" fill="white"/>
<path d="M299.155 40C296.47 40 294.042 39.4009 291.873 38.2028C289.704 36.9705 288 35.2589 286.76 33.068C285.521 30.843 284.901 28.2756 284.901 25.3659C284.901 22.4904 285.538 19.9401 286.812 17.715C288.086 15.4899 289.825 13.7783 292.028 12.5802C294.232 11.3821 296.693 10.7831 299.413 10.7831C302.133 10.7831 304.595 11.3821 306.798 12.5802C309.002 13.7783 310.741 15.4899 312.015 17.715C313.288 19.9401 313.925 22.4904 313.925 25.3659C313.925 28.2413 313.271 30.7916 311.963 33.0167C310.655 35.2418 308.864 36.9705 306.592 38.2028C304.354 39.4009 301.875 40 299.155 40ZM299.155 34.9166C300.67 34.9166 302.082 34.5571 303.39 33.8383C304.733 33.1194 305.817 32.0411 306.644 30.6033C307.47 29.1656 307.883 27.4198 307.883 25.3659C307.883 23.3119 307.487 21.5832 306.695 20.1797C305.903 18.742 304.853 17.6637 303.545 16.9448C302.237 16.2259 300.825 15.8665 299.31 15.8665C297.795 15.8665 296.383 16.2259 295.075 16.9448C293.801 17.6637 292.786 18.742 292.028 20.1797C291.271 21.5832 290.892 23.3119 290.892 25.3659C290.892 28.4125 291.667 30.7745 293.216 32.4519C294.8 34.095 296.779 34.9166 299.155 34.9166Z" fill="white"/>
<path d="M322.534 15.353C323.395 13.9153 324.531 12.8027 325.943 12.0154C327.389 11.1938 329.093 10.7831 331.056 10.7831V16.8421H329.558C327.251 16.8421 325.495 17.424 324.29 18.5879C323.12 19.7518 322.534 21.7715 322.534 24.647V39.5379H316.647V11.2452H322.534V15.353Z" fill="white"/>
<path d="M331.406 25.2632C331.406 22.4219 331.992 19.9059 333.162 17.715C334.367 15.5242 335.985 13.8297 338.017 12.6316C340.082 11.3992 342.355 10.7831 344.834 10.7831C347.072 10.7831 349.017 11.2281 350.67 12.1181C352.357 12.9739 353.699 14.0522 354.698 15.353V11.2452H360.637V39.5379H354.698V35.3273C353.699 36.6624 352.339 37.7749 350.618 38.665C348.896 39.555 346.934 40 344.73 40C342.286 40 340.048 39.3838 338.017 38.1515C335.985 36.8849 334.367 35.1391 333.162 32.914C331.992 30.6547 331.406 28.1044 331.406 25.2632ZM354.698 25.3659C354.698 23.4146 354.285 21.7202 353.458 20.2824C352.666 18.8447 351.616 17.7493 350.308 16.9962C349 16.243 347.588 15.8665 346.073 15.8665C344.558 15.8665 343.147 16.243 341.838 16.9962C340.53 17.715 339.463 18.7933 338.636 20.2311C337.845 21.6346 337.449 23.3119 337.449 25.2632C337.449 27.2144 337.845 28.926 338.636 30.3979C339.463 31.8699 340.53 32.9996 341.838 33.7869C343.181 34.54 344.593 34.9166 346.073 34.9166C347.588 34.9166 349 34.54 350.308 33.7869C351.616 33.0338 352.666 31.9384 353.458 30.5006C354.285 29.0287 354.698 27.3171 354.698 25.3659Z" fill="white"/>
<path d="M368.267 7.49679C367.199 7.49679 366.304 7.13736 365.581 6.41849C364.858 5.69962 364.497 4.80959 364.497 3.7484C364.497 2.68721 364.858 1.79718 365.581 1.07831C366.304 0.359436 367.199 0 368.267 0C369.299 0 370.177 0.359436 370.9 1.07831C371.623 1.79718 371.985 2.68721 371.985 3.7484C371.985 4.80959 371.623 5.69962 370.9 6.41849C370.177 7.13736 369.299 7.49679 368.267 7.49679ZM371.159 11.2452V39.5379H365.271V11.2452H371.159Z" fill="white"/>
<path d="M386.119 40C383.881 40 381.867 39.6063 380.076 38.819C378.32 37.9974 376.926 36.902 375.893 35.5327C374.86 34.1292 374.309 32.5717 374.24 30.8601H380.334C380.438 32.0582 381.006 33.068 382.039 33.8896C383.106 34.6769 384.432 35.0706 386.015 35.0706C387.668 35.0706 388.942 34.7625 389.837 34.1463C390.767 33.4959 391.231 32.6744 391.231 31.6816C391.231 30.6205 390.715 29.8331 389.682 29.3196C388.684 28.8062 387.083 28.2413 384.879 27.6252C382.744 27.0432 381.006 26.4784 379.663 25.9307C378.32 25.383 377.15 24.5443 376.151 23.4146C375.187 22.285 374.705 20.7959 374.705 18.9474C374.705 17.4412 375.153 16.0719 376.048 14.8395C376.943 13.573 378.217 12.5802 379.87 11.8614C381.557 11.1425 383.485 10.7831 385.654 10.7831C388.89 10.7831 391.49 11.6046 393.452 13.2478C395.449 14.8567 396.516 17.0646 396.654 19.8716H390.767C390.663 18.6051 390.147 17.5952 389.217 16.8421C388.288 16.089 387.031 15.7125 385.447 15.7125C383.898 15.7125 382.71 16.0034 381.884 16.5854C381.057 17.1673 380.644 17.9375 380.644 18.896C380.644 19.6491 380.92 20.2824 381.471 20.7959C382.021 21.3094 382.693 21.7202 383.485 22.0282C384.277 22.3021 385.447 22.6615 386.997 23.1065C389.062 23.6543 390.749 24.2191 392.058 24.801C393.4 25.3487 394.554 26.1703 395.518 27.2657C396.482 28.3611 396.981 29.816 397.016 31.6303C397.016 33.2392 396.568 34.6769 395.673 35.9435C394.778 37.2101 393.504 38.2028 391.851 38.9217C390.233 39.6406 388.322 40 386.119 40Z" fill="white"/>
<path d="M406.553 0.332051V1.48738H405.081V16.4142H406.553V17.5849H403.764V0.332051H406.553Z" fill="white"/>
<path d="M410.827 7.47968H409.246L410.734 3.98289H411.741L410.827 7.47968ZM413.337 7.47968H411.756L413.244 3.98289H414.251L413.337 7.47968Z" fill="white"/>
<path d="M416.046 10.4681C416.046 9.60548 416.222 8.85067 416.573 8.20368C416.924 7.54643 417.404 7.03808 418.014 6.67865C418.633 6.31921 419.326 6.1395 420.09 6.1395C420.751 6.1395 421.365 6.29354 421.934 6.60163C422.502 6.89945 422.935 7.29482 423.235 7.78776V3.3205H424.66V14.7197H423.235V13.1331C422.956 13.6363 422.543 14.0522 421.996 14.3808C421.448 14.6992 420.808 14.8584 420.074 14.8584C419.32 14.8584 418.633 14.6735 418.014 14.3038C417.404 13.9341 416.924 13.4155 416.573 12.748C416.222 12.0804 416.046 11.3205 416.046 10.4681ZM423.235 10.4835C423.235 9.84681 423.106 9.29226 422.848 8.81986C422.589 8.34746 422.238 7.98802 421.794 7.74155C421.36 7.48481 420.88 7.35644 420.353 7.35644C419.826 7.35644 419.346 7.47968 418.912 7.72615C418.479 7.97262 418.133 8.33205 417.874 8.80445C417.616 9.27685 417.487 9.83141 417.487 10.4681C417.487 11.1151 417.616 11.6799 417.874 12.1626C418.133 12.635 418.479 12.9996 418.912 13.2563C419.346 13.5028 419.826 13.626 420.353 13.626C420.88 13.626 421.36 13.5028 421.794 13.2563C422.238 12.9996 422.589 12.635 422.848 12.1626C423.106 11.6799 423.235 11.1202 423.235 10.4835Z" fill="white"/>
<path d="M435.409 10.1754C435.409 10.4424 435.394 10.7249 435.363 11.0227H428.577C428.628 11.8545 428.912 12.5066 429.429 12.979C429.956 13.4412 430.591 13.6722 431.335 13.6722C431.944 13.6722 432.45 13.5336 432.853 13.2563C433.266 12.9688 433.555 12.5888 433.721 12.1164H435.239C435.012 12.9277 434.557 13.5901 433.876 14.1036C433.194 14.6068 432.347 14.8584 431.335 14.8584C430.529 14.8584 429.806 14.6786 429.166 14.3192C428.535 13.9598 428.04 13.4514 427.678 12.7942C427.317 12.1267 427.136 11.3564 427.136 10.4835C427.136 9.61061 427.312 8.84553 427.663 8.18828C428.014 7.53102 428.504 7.02781 429.135 6.67865C429.775 6.31921 430.508 6.1395 431.335 6.1395C432.14 6.1395 432.853 6.31408 433.473 6.66325C434.092 7.01241 434.568 7.49508 434.898 8.11126C435.239 8.71716 435.409 9.40522 435.409 10.1754ZM433.953 9.88276C433.953 9.34874 433.834 8.89174 433.597 8.51177C433.359 8.12152 433.034 7.82884 432.621 7.63372C432.218 7.42833 431.768 7.32563 431.273 7.32563C430.56 7.32563 429.951 7.55156 429.444 8.00342C428.949 8.45529 428.665 9.08173 428.592 9.88276H433.953Z" fill="white"/>
<path d="M441.051 13.4258L443.685 6.27814H445.187L441.856 14.7197H440.214L436.883 6.27814H438.401L441.051 13.4258Z" fill="white"/>
<path d="M447.411 3.98289H448.976L447.489 7.47968H446.497L447.411 3.98289ZM449.921 3.98289H451.486L449.999 7.47968H448.992L449.921 3.98289Z" fill="white"/>
<path d="M457 17.5849H454.211V16.4142H455.683V1.48738H454.211V0.332051H457V17.5849Z" fill="white"/>
<path d="M0 3.84842H35.8888V39.5312H0V3.84842Z" fill="white"/>
<path d="M5.81968 21.9311V20.9884C6.67102 20.9884 7.26491 20.811 7.60137 20.4562C7.94293 20.1014 8.11371 19.5083 8.11371 18.6771V16.2442C8.11371 15.5447 8.17998 14.939 8.31252 14.4271C8.45016 13.9152 8.67192 13.4919 8.97779 13.1574C9.28366 12.8229 9.69149 12.5745 10.2013 12.4123C10.7111 12.2501 11.3406 12.169 12.09 12.169V13.6592C11.4987 13.6592 11.0322 13.7504 10.6907 13.9329C10.3542 14.1154 10.1146 14.3992 9.97187 14.7844C9.83423 15.1646 9.76541 15.6512 9.76541 16.2442V19.2853C9.76541 19.6807 9.71188 20.0405 9.60483 20.3649C9.50287 20.6893 9.3117 20.9681 9.03132 21.2012C8.75094 21.4344 8.35076 21.6143 7.83078 21.741C7.31589 21.8678 6.64553 21.9311 5.81968 21.9311ZM12.09 31.6324C11.3406 31.6324 10.7111 31.5513 10.2013 31.3891C9.69149 31.2269 9.28366 30.9785 8.97779 30.644C8.67192 30.3095 8.45016 29.8862 8.31252 29.3743C8.17998 28.8624 8.11371 28.2567 8.11371 27.5572V25.1243C8.11371 24.2931 7.94293 23.7 7.60137 23.3452C7.26491 22.9904 6.67102 22.813 5.81968 22.813V21.8703C6.64553 21.8703 7.31589 21.9336 7.83078 22.0604C8.35076 22.1871 8.75094 22.367 9.03132 22.6002C9.3117 22.8333 9.50287 23.1121 9.60483 23.4365C9.71188 23.7609 9.76541 24.1207 9.76541 24.5161V27.5572C9.76541 28.1503 9.83423 28.6368 9.97187 29.017C10.1146 29.3971 10.3542 29.6784 10.6907 29.8609C11.0322 30.0484 11.4987 30.1422 12.09 30.1422V31.6324Z" fill="#404756"/>
<path d="M15.793 28.5912C15.4157 28.5912 15.092 28.4569 14.8218 28.1883C14.5516 27.9196 14.4166 27.5978 14.4166 27.2227C14.4166 26.8476 14.5516 26.5258 14.8218 26.2571C15.092 25.9885 15.4157 25.8542 15.793 25.8542C16.1702 25.8542 16.4939 25.9885 16.7641 26.2571C17.0343 26.5258 17.1694 26.8476 17.1694 27.2227C17.1694 27.4711 17.1057 27.6992 16.9782 27.907C16.8559 28.1148 16.6902 28.282 16.4812 28.4088C16.2773 28.5304 16.0479 28.5912 15.793 28.5912Z" fill="#404756"/>
<path d="M21.723 28.5912C21.3458 28.5912 21.0221 28.4569 20.7519 28.1883C20.4817 27.9196 20.3466 27.5978 20.3466 27.2227C20.3466 26.8476 20.4817 26.5258 20.7519 26.2571C21.0221 25.9885 21.3458 25.8542 21.723 25.8542C22.1003 25.8542 22.424 25.9885 22.6942 26.2571C22.9644 26.5258 23.0995 26.8476 23.0995 27.2227C23.0995 27.4711 23.0357 27.6992 22.9083 27.907C22.7859 28.1148 22.6203 28.282 22.4113 28.4088C22.2073 28.5304 21.9779 28.5912 21.723 28.5912Z" fill="#404756"/>
<path d="M27.6531 28.5912C27.2759 28.5912 26.9522 28.4569 26.682 28.1883C26.4118 27.9196 26.2767 27.5978 26.2767 27.2227C26.2767 26.8476 26.4118 26.5258 26.682 26.2571C26.9522 25.9885 27.2759 25.8542 27.6531 25.8542C28.0304 25.8542 28.3541 25.9885 28.6243 26.2571C28.8944 26.5258 29.0295 26.8476 29.0295 27.2227C29.0295 27.4711 28.9658 27.6992 28.8384 27.907C28.716 28.1148 28.5503 28.282 28.3413 28.4088C28.1374 28.5304 27.908 28.5912 27.6531 28.5912Z" fill="#404756"/>
</svg>
