<svg width="353" height="81" viewBox="0 0 353 81" fill="none" xmlns="http://www.w3.org/2000/svg">
<path d="M345.855 4H297.583C293.947 4 291 6.94708 291 10.5826V58.8549C291 62.4904 293.947 65.4375 297.583 65.4375H345.855C349.49 65.4375 352.438 62.4904 352.438 58.8549V10.5826C352.438 6.94708 349.49 4 345.855 4ZM306.359 56.6607C302.724 56.6607 299.777 53.7136 299.777 50.0781C299.777 46.4426 302.724 43.4955 306.359 43.4955C309.995 43.4955 312.942 46.4426 312.942 50.0781C312.942 53.7136 309.995 56.6607 306.359 56.6607ZM327.963 56.6607H323.254C322.43 56.6607 321.739 56.0249 321.685 55.2024C320.97 44.2246 312.189 35.4656 301.235 34.7521C300.413 34.6986 299.777 34.0073 299.777 33.1831V28.4745C299.777 27.5783 300.527 26.8594 301.422 26.9077C316.582 27.7269 328.712 39.8721 329.53 55.0159C329.578 55.9109 328.859 56.6607 327.963 56.6607ZM342.092 56.6607H337.383C336.538 56.6607 335.851 55.9912 335.816 55.147C335.049 36.423 320.018 21.3891 301.291 20.6213C300.446 20.5866 299.777 19.899 299.777 19.0541V14.3456C299.777 13.4606 300.509 12.7461 301.393 12.7779C324.409 13.6041 342.837 32.1404 343.66 55.0443C343.691 55.9287 342.977 56.6607 342.092 56.6607V56.6607Z" fill="white"/>
<path d="M31.625 19.0273C22.875 19.0273 15.9023 26.1367 15.9023 34.75C15.9023 43.5 22.875 50.4727 31.625 50.4727C40.2383 50.4727 47.3477 43.5 47.3477 34.75C47.3477 26.1367 40.2383 19.0273 31.625 19.0273ZM31.625 45.0039C26.0195 45.0039 21.3711 40.4922 21.3711 34.75C21.3711 29.1445 25.8828 24.6328 31.625 24.6328C37.2305 24.6328 41.7422 29.1445 41.7422 34.75C41.7422 40.4922 37.2305 45.0039 31.625 45.0039ZM51.5859 18.4805C51.5859 16.4297 49.9453 14.7891 47.8945 14.7891C45.8438 14.7891 44.2031 16.4297 44.2031 18.4805C44.2031 20.5312 45.8438 22.1719 47.8945 22.1719C49.9453 22.1719 51.5859 20.5312 51.5859 18.4805ZM61.9766 22.1719C61.7031 17.25 60.6094 12.875 57.0547 9.32031C53.5 5.76562 49.125 4.67188 44.2031 4.39844C39.1445 4.125 23.9688 4.125 18.9102 4.39844C13.9883 4.67188 9.75 5.76562 6.05859 9.32031C2.50391 12.875 1.41016 17.25 1.13672 22.1719C0.863281 27.2305 0.863281 42.4062 1.13672 47.4648C1.41016 52.3867 2.50391 56.625 6.05859 60.3164C9.75 63.8711 13.9883 64.9648 18.9102 65.2383C23.9688 65.5117 39.1445 65.5117 44.2031 65.2383C49.125 64.9648 53.5 63.8711 57.0547 60.3164C60.6094 56.625 61.7031 52.3867 61.9766 47.4648C62.25 42.4062 62.25 27.2305 61.9766 22.1719ZM55.4141 52.7969C54.457 55.5312 52.2695 57.582 49.6719 58.6758C45.5703 60.3164 36 59.9062 31.625 59.9062C27.1133 59.9062 17.543 60.3164 13.5781 58.6758C10.8438 57.582 8.79297 55.5312 7.69922 52.7969C6.05859 48.832 6.46875 39.2617 6.46875 34.75C6.46875 30.375 6.05859 20.8047 7.69922 16.7031C8.79297 14.1055 10.8438 12.0547 13.5781 10.9609C17.543 9.32031 27.1133 9.73047 31.625 9.73047C36 9.73047 45.5703 9.32031 49.6719 10.9609C52.2695 11.918 54.3203 14.1055 55.4141 16.7031C57.0547 20.8047 56.6445 30.375 56.6445 34.75C56.6445 39.2617 57.0547 48.832 55.4141 52.7969Z" fill="white"/>
<path d="M92.5586 54.1641C92.5586 53.8906 92.2852 53.6172 91.875 53.6172C91.4648 53.6172 91.1914 53.8906 91.1914 54.1641C91.1914 54.4375 91.4648 54.7109 91.875 54.5742C92.2852 54.5742 92.5586 54.4375 92.5586 54.1641ZM88.3203 53.4805C88.3203 53.7539 88.5938 54.1641 89.0039 54.1641C89.2773 54.3008 89.6875 54.1641 89.8242 53.8906C89.8242 53.6172 89.6875 53.3438 89.2773 53.207C88.8672 53.0703 88.457 53.207 88.3203 53.4805ZM94.4727 53.3438C94.0625 53.3438 93.7891 53.6172 93.7891 54.0273C93.7891 54.3008 94.1992 54.4375 94.6094 54.3008C95.0195 54.1641 95.293 54.0273 95.1562 53.7539C95.1562 53.4805 94.7461 53.207 94.4727 53.3438ZM103.359 0.84375C84.4922 0.84375 70 15.3359 70 34.2031C70 49.3789 79.4336 62.3672 93.1055 67.0156C94.8828 67.2891 95.4297 66.1953 95.4297 65.375C95.4297 64.418 95.4297 59.7695 95.4297 56.8984C95.4297 56.8984 85.8594 58.9492 83.8086 52.7969C83.8086 52.7969 82.3047 48.832 80.1172 47.875C80.1172 47.875 76.9727 45.6875 80.2539 45.6875C80.2539 45.6875 83.6719 45.9609 85.5859 49.2422C88.5938 54.5742 93.5156 53.0703 95.5664 52.1133C95.8398 49.9258 96.6602 48.4219 97.7539 47.4648C90.0977 46.6445 82.3047 45.5508 82.3047 32.4258C82.3047 28.5977 83.3984 26.8203 85.5859 24.3594C85.1758 23.4023 84.082 19.8477 85.9961 15.0625C88.7305 14.2422 95.4297 18.7539 95.4297 18.7539C98.1641 17.9336 101.035 17.6602 103.906 17.6602C106.914 17.6602 109.785 17.9336 112.52 18.7539C112.52 18.7539 119.082 14.1055 121.953 15.0625C123.867 19.8477 122.637 23.4023 122.363 24.3594C124.551 26.8203 125.918 28.5977 125.918 32.4258C125.918 45.5508 117.852 46.6445 110.195 47.4648C111.426 48.5586 112.52 50.6094 112.52 53.8906C112.52 58.4023 112.383 64.1445 112.383 65.2383C112.383 66.1953 113.066 67.2891 114.844 66.8789C128.516 62.3672 137.812 49.3789 137.812 34.2031C137.812 15.3359 122.363 0.84375 103.359 0.84375ZM83.2617 48.0117C82.9883 48.1484 83.125 48.5586 83.2617 48.832C83.5352 48.9688 83.8086 49.1055 84.082 48.9688C84.2188 48.832 84.2188 48.4219 83.9453 48.1484C83.6719 48.0117 83.3984 47.875 83.2617 48.0117ZM81.7578 46.918C81.6211 47.1914 81.7578 47.3281 82.0312 47.4648C82.3047 47.6016 82.5781 47.6016 82.7148 47.3281C82.7148 47.1914 82.5781 47.0547 82.3047 46.918C82.0312 46.7812 81.8945 46.7812 81.7578 46.918ZM86.1328 51.8398C85.9961 51.9766 85.9961 52.3867 86.4062 52.6602C86.6797 52.9336 87.0898 53.0703 87.2266 52.7969C87.3633 52.6602 87.3633 52.25 87.0898 51.9766C86.8164 51.7031 86.4062 51.5664 86.1328 51.8398ZM84.6289 49.7891C84.3555 49.9258 84.3555 50.3359 84.6289 50.6094C84.9023 50.8828 85.1758 51.0195 85.4492 50.8828C85.5859 50.7461 85.5859 50.3359 85.4492 50.0625C85.1758 49.7891 84.9023 49.6523 84.6289 49.7891Z" fill="white"/>
<path d="M207.754 20.5312C210.488 18.4805 212.949 16.0195 214.863 13.1484C212.402 14.2422 209.531 15.0625 206.66 15.3359C209.668 13.5586 211.855 10.8242 212.949 7.40625C210.215 9.04688 207.07 10.2773 203.926 10.9609C201.191 8.08984 197.5 6.44922 193.398 6.44922C185.469 6.44922 179.043 12.875 179.043 20.8047C179.043 21.8984 179.18 22.9922 179.453 24.0859C167.559 23.4023 156.895 17.6602 149.785 9.04688C148.555 11.0977 147.871 13.5586 147.871 16.293C147.871 21.2148 150.332 25.5898 154.297 28.1875C151.973 28.0508 149.648 27.5039 147.734 26.4102V26.5469C147.734 33.5195 152.656 39.2617 159.219 40.6289C158.125 40.9023 156.758 41.1758 155.527 41.1758C154.57 41.1758 153.75 41.0391 152.793 40.9023C154.57 46.6445 159.902 50.7461 166.191 50.8828C161.27 54.7109 155.117 57.0352 148.418 57.0352C147.188 57.0352 146.094 56.8984 145 56.7617C151.289 60.8633 158.809 63.1875 167.012 63.1875C193.398 63.1875 207.754 41.4492 207.754 22.4453C207.754 21.7617 207.754 21.2148 207.754 20.5312Z" fill="white"/>
<path d="M278.875 4.125H226.238C223.914 4.125 222 6.17578 222 8.63672V61C222 63.4609 223.914 65.375 226.238 65.375H278.875C281.199 65.375 283.25 63.4609 283.25 61V8.63672C283.25 6.17578 281.199 4.125 278.875 4.125ZM240.457 56.625H231.434V27.5039H240.457V56.625ZM235.945 23.4023C232.938 23.4023 230.613 21.0781 230.613 18.207C230.613 15.3359 232.938 12.875 235.945 12.875C238.816 12.875 241.141 15.3359 241.141 18.207C241.141 21.0781 238.816 23.4023 235.945 23.4023ZM274.5 56.625H265.34V42.4062C265.34 39.125 265.34 34.75 260.691 34.75C255.906 34.75 255.223 38.4414 255.223 42.2695V56.625H246.199V27.5039H254.812V31.4688H254.949C256.18 29.1445 259.188 26.6836 263.562 26.6836C272.723 26.6836 274.5 32.8359 274.5 40.6289V56.625Z" fill="white"/>
</svg>
