<svg width="268" height="186" viewBox="0 0 268 186" fill="none" xmlns="http://www.w3.org/2000/svg">
<path d="M15.5 28C19.3556 28 22.8769 26.2459 25.2098 23.3715C25.5549 22.9463 25.1786 22.3251 24.6453 22.4267C18.5807 23.5816 13.0114 18.9317 13.0114 12.8098C13.0114 9.2833 14.8992 6.04048 17.9673 4.29443C18.4403 4.02529 18.3213 3.30825 17.7839 3.20898C17.0306 3.07007 16.2661 3.00011 15.5 3C8.60015 3 3 8.59136 3 15.5C3 22.3999 8.59136 28 15.5 28Z" fill="#9AA6C5"/>
<path d="M40.5 10.8125C37.917 10.8125 35.8125 12.917 35.8125 15.5C35.8125 18.083 37.917 20.1875 40.5 20.1875C43.083 20.1875 45.1875 18.083 45.1875 15.5C45.1875 12.917 43.083 10.8125 40.5 10.8125ZM52.5312 14.7432L47.9072 12.4336L49.543 7.53125C49.7627 6.86719 49.1328 6.2373 48.4736 6.46191L43.5713 8.09766L41.2568 3.46875C40.9443 2.84375 40.0557 2.84375 39.7432 3.46875L37.4336 8.09277L32.5264 6.45703C31.8623 6.2373 31.2324 6.86719 31.457 7.52637L33.0928 12.4287L28.4688 14.7432C27.8438 15.0557 27.8438 15.9443 28.4688 16.2568L33.0928 18.5664L31.457 23.4736C31.2373 24.1377 31.8672 24.7676 32.5264 24.543L37.4287 22.9072L39.7383 27.5312C40.0508 28.1562 40.9395 28.1562 41.252 27.5312L43.5615 22.9072L48.4639 24.543C49.1279 24.7627 49.7578 24.1328 49.5332 23.4736L47.8975 18.5713L52.5215 16.2617C53.1563 15.9443 53.1562 15.0557 52.5312 14.7432V14.7432ZM44.9189 19.9189C42.4824 22.3555 38.5176 22.3555 36.0811 19.9189C33.6445 17.4824 33.6445 13.5176 36.0811 11.0811C38.5176 8.64453 42.4824 8.64453 44.9189 11.0811C47.3555 13.5176 47.3555 17.4824 44.9189 19.9189Z" fill="#CFD9E5"/>
<path d="M75 3H56V22H75V3Z" fill="#6DA544"/>
<path d="M65.5 7.25L72.625 12.5L65.5 17.7499L58.375 12.5L65.5 7.25Z" fill="#E4B64B"/>
<path d="M65.4999 15.5C67.1567 15.5 68.4998 14.1569 68.4998 12.5C68.4998 10.8432 67.1567 9.50012 65.4999 9.50012C63.8431 9.50012 62.5 10.8432 62.5 12.5C62.5 14.1569 63.8431 15.5 65.4999 15.5Z" fill="#F0F0F0"/>
<path d="M64 12.3125C63.4783 12.3125 62.9749 12.3918 62.501 12.5391C62.5219 14.1778 63.8562 15.5 65.5 15.5C66.5164 15.5 67.4141 14.9941 67.9568 14.2208C67.0284 13.0585 65.5998 12.3125 64 12.3125Z" fill="#0052B4"/>
<path d="M68.4444 13.0748C68.4806 12.8887 68.5001 12.6967 68.5001 12.5C68.5001 10.8432 67.1569 9.5 65.5 9.5C64.2638 9.5 63.2025 10.248 62.7432 11.3159C63.1491 11.2319 63.5695 11.1875 64 11.1875C65.7426 11.1875 67.3188 11.9118 68.4444 13.0748Z" fill="#0052B4"/>
<path d="M43 70C43 75.5078 38.5078 80 33 80C27.4922 80 23 75.5078 23 70C23 64.4922 27.4922 60 33 60C38.5078 60 43 64.4922 43 70ZM48.3906 70C48.3906 61.4844 41.5156 54.6094 33 54.6094C24.4844 54.6094 17.6094 61.4844 17.6094 70C17.6094 78.5156 24.4844 85.3906 33 85.3906C41.5156 85.3906 48.3906 78.5156 48.3906 70ZM52.6094 53.9844C52.6094 51.9922 51.0078 50.3906 49.0156 50.3906C47.0234 50.3906 45.4219 51.9922 45.4219 53.9844C45.4219 55.9766 47.0234 57.5781 49.0156 57.5781C51.0078 57.5781 52.6094 55.9766 52.6094 53.9844ZM33 45.3906C37.375 45.3906 46.75 45.0391 50.6953 46.6016C52.0625 47.1484 53.0781 47.8125 54.1328 48.8672C55.1875 49.9219 55.8516 50.9375 56.3984 52.3047C57.9609 56.25 57.6094 65.625 57.6094 70C57.6094 74.375 57.9609 83.75 56.3984 87.6953C55.8516 89.0625 55.1875 90.0781 54.1328 91.1328C53.0781 92.1875 52.0625 92.8516 50.6953 93.3984C46.75 94.9609 37.375 94.6094 33 94.6094C28.625 94.6094 19.25 94.9609 15.3047 93.3984C13.9375 92.8516 12.9219 92.1875 11.8672 91.1328C10.8125 90.0781 10.1484 89.0625 9.60156 87.6953C8.03906 83.75 8.39062 74.375 8.39062 70C8.39062 65.625 8.03906 56.25 9.60156 52.3047C10.1484 50.9375 10.8125 49.9219 11.8672 48.8672C12.9219 47.8125 13.9375 47.1484 15.3047 46.6016C19.25 45.0391 28.625 45.3906 33 45.3906ZM63 70C63 65.8594 63.0391 61.7578 62.8047 57.6172C62.5703 52.8125 61.4766 48.5547 57.9609 45.0391C54.4453 41.5234 50.1875 40.4297 45.3828 40.1953C41.2422 39.9609 37.1406 40 33 40C28.8594 40 24.7578 39.9609 20.6172 40.1953C15.8125 40.4297 11.5547 41.5234 8.03906 45.0391C4.52344 48.5547 3.42969 52.8125 3.19531 57.6172C2.96094 61.7578 3 65.8594 3 70C3 74.1406 2.96094 78.2422 3.19531 82.3828C3.42969 87.1875 4.52344 91.4453 8.03906 94.9609C11.5547 98.4766 15.8125 99.5703 20.6172 99.8047C24.7578 100.039 28.8594 100 33 100C37.1406 100 41.2422 100.039 45.3828 99.8047C50.1875 99.5703 54.4453 98.4766 57.9609 94.9609C61.4766 91.4453 62.5703 87.1875 62.8047 82.3828C63.0391 78.2422 63 74.1406 63 70Z" fill="#06D6A0"/>
<path d="M97 40C80.4375 40 67 53.4375 67 70C67 83.2422 75.5938 94.4922 87.5078 98.4766C89.0312 98.75 89.5781 97.8125 89.5781 97.0312C89.5781 96.2891 89.5391 93.9453 89.5391 91.4453C89.5391 91.4453 81.1797 93.2422 79.4219 87.8906C79.4219 87.8906 78.0547 84.4141 76.1016 83.5156C76.1016 83.5156 73.3672 81.6406 76.2969 81.6797C76.2969 81.6797 79.2656 81.9141 80.9063 84.7656C83.5234 89.375 87.8984 88.0469 89.6172 87.2656C89.8906 85.3516 90.6719 84.0234 91.5313 83.2422C84.8516 82.5 77.8594 79.9219 77.8594 68.4375C77.8594 65.1562 79.0312 62.5 80.9453 60.3906C80.6328 59.6094 79.6172 56.5625 81.2578 52.4219C83.7578 51.6406 89.5 55.5078 89.5 55.5078C91.8828 54.8437 94.4609 54.4922 97 54.4922C99.5391 54.4922 102.117 54.8437 104.5 55.5078C104.5 55.5078 110.242 51.6406 112.742 52.4219C114.383 56.5625 113.367 59.6094 113.055 60.3906C114.969 62.5 116.141 65.1562 116.141 68.4375C116.141 79.9609 109.109 82.5 102.43 83.2422C103.523 84.1797 104.461 85.9766 104.461 88.7891C104.461 92.8125 104.422 96.0547 104.422 97.0312C104.422 97.8125 104.969 98.75 106.492 98.4766C118.406 94.4922 127 83.2422 127 70C127 53.4375 113.563 40 97 40ZM78.3672 83.0859C78.2891 83.2422 78.0547 83.2812 77.8594 83.1641C77.625 83.0469 77.5078 82.8516 77.5859 82.6953C77.6641 82.5781 77.8594 82.5391 78.0938 82.6172C78.3281 82.7344 78.4453 82.9297 78.3672 83.0859ZM79.5781 84.4141C79.4219 84.5703 79.1484 84.4922 78.9531 84.2969C78.7578 84.0625 78.7188 83.7891 78.875 83.6719C79.0312 83.5156 79.3047 83.5937 79.5 83.7891C79.6953 84.0234 79.7344 84.2969 79.5781 84.4141ZM80.75 86.1719C80.5938 86.2891 80.2813 86.1719 80.0859 85.8984C79.8906 85.625 79.8906 85.3125 80.0859 85.1953C80.2813 85.0391 80.5938 85.1562 80.75 85.4297C80.9453 85.7031 80.9453 86.0156 80.75 86.1719ZM82.3906 87.8125C82.2344 88.0078 81.8828 87.9688 81.6094 87.6953C81.3359 87.4609 81.2578 87.1094 81.4531 86.9531C81.6094 86.7578 81.9609 86.7969 82.2344 87.0703C82.4688 87.3047 82.5469 87.6562 82.3906 87.8125ZM84.6172 88.7891C84.5391 89.0234 84.1875 89.1406 83.875 89.0234C83.5234 88.9453 83.2891 88.6719 83.3672 88.4375C83.4453 88.2031 83.7969 88.0859 84.1094 88.1641C84.4609 88.2813 84.6953 88.5547 84.6172 88.7891ZM87.0781 88.9844C87.0781 89.2188 86.8047 89.4141 86.4531 89.4141C86.0625 89.4531 85.7891 89.2578 85.7891 88.9844C85.7891 88.75 86.0625 88.5547 86.4141 88.5547C86.7656 88.5156 87.0781 88.7109 87.0781 88.9844ZM89.3438 88.5937C89.3828 88.8281 89.1484 89.0625 88.7969 89.1406C88.4453 89.2188 88.1328 89.0625 88.0938 88.8281C88.0547 88.5547 88.2891 88.3203 88.6406 88.2422C88.9922 88.2031 89.3047 88.3594 89.3438 88.5937Z" fill="#06D6A0"/>
<path d="M194.281 50.9375C192.016 51.9141 189.555 52.6172 187.016 52.8906C189.633 51.3281 191.625 48.8672 192.562 45.9375C190.141 47.3828 187.406 48.4375 184.555 48.9844C182.25 46.5234 178.969 45 175.336 45C168.344 45 162.719 50.6641 162.719 57.6172C162.719 58.5938 162.836 59.5703 163.031 60.5078C152.562 59.9609 143.227 54.9609 137.016 47.3047C135.922 49.1797 135.297 51.3281 135.297 53.6719C135.297 58.0469 137.523 61.9141 140.922 64.1797C138.852 64.1016 136.898 63.5156 135.219 62.5781C135.219 62.6172 135.219 62.6953 135.219 62.7344C135.219 68.8672 139.555 73.9453 145.336 75.1172C144.281 75.3906 143.148 75.5469 142.016 75.5469C141.195 75.5469 140.414 75.4687 139.633 75.3516C141.234 80.3516 145.883 83.9844 151.43 84.1016C147.094 87.5 141.664 89.4922 135.766 89.4922C134.711 89.4922 133.734 89.4531 132.719 89.3359C138.305 92.9297 144.945 95 152.094 95C175.297 95 187.992 75.7813 187.992 59.1016C187.992 58.5547 187.992 58.0078 187.953 57.4609C190.414 55.6641 192.562 53.4375 194.281 50.9375Z" fill="#06D6A0"/>
<path d="M209.258 90.2344V63.125H218.281V90.2344H209.258ZM218.867 54.7656C218.867 57.3437 216.914 59.4531 213.75 59.4531H213.711C210.664 59.4531 208.711 57.3437 208.711 54.7656C208.711 52.1094 210.742 50.0781 213.828 50.0781C216.914 50.0781 218.828 52.1094 218.867 54.7656ZM241.719 90.2344V75.7422C241.719 72.0703 240.43 69.6094 237.188 69.6094C234.688 69.6094 233.203 71.2891 232.539 72.8906C232.305 73.4766 232.266 74.2969 232.266 75.0781V90.2344H223.242C223.359 65.6641 223.242 63.125 223.242 63.125H232.266V67.0703H232.188C233.359 65.1953 235.508 62.5 240.352 62.5C246.289 62.5 250.742 66.3672 250.742 74.6875V90.2344H241.719ZM260 51.25C260 45.0391 254.961 40 248.75 40H211.25C205.039 40 200 45.0391 200 51.25V88.75C200 94.9609 205.039 100 211.25 100H248.75C254.961 100 260 94.9609 260 88.75V51.25Z" fill="#06D6A0"/>
<path d="M43 140C43 145.508 38.5078 150 33 150C27.4922 150 23 145.508 23 140C23 134.492 27.4922 130 33 130C38.5078 130 43 134.492 43 140ZM48.3906 140C48.3906 131.484 41.5156 124.609 33 124.609C24.4844 124.609 17.6094 131.484 17.6094 140C17.6094 148.516 24.4844 155.391 33 155.391C41.5156 155.391 48.3906 148.516 48.3906 140ZM52.6094 123.984C52.6094 121.992 51.0078 120.391 49.0156 120.391C47.0234 120.391 45.4219 121.992 45.4219 123.984C45.4219 125.977 47.0234 127.578 49.0156 127.578C51.0078 127.578 52.6094 125.977 52.6094 123.984ZM33 115.391C37.375 115.391 46.75 115.039 50.6953 116.602C52.0625 117.148 53.0781 117.813 54.1328 118.867C55.1875 119.922 55.8516 120.938 56.3984 122.305C57.9609 126.25 57.6094 135.625 57.6094 140C57.6094 144.375 57.9609 153.75 56.3984 157.695C55.8516 159.063 55.1875 160.078 54.1328 161.133C53.0781 162.188 52.0625 162.852 50.6953 163.398C46.75 164.961 37.375 164.609 33 164.609C28.625 164.609 19.25 164.961 15.3047 163.398C13.9375 162.852 12.9219 162.188 11.8672 161.133C10.8125 160.078 10.1484 159.063 9.60156 157.695C8.03906 153.75 8.39062 144.375 8.39062 140C8.39062 135.625 8.03906 126.25 9.60156 122.305C10.1484 120.938 10.8125 119.922 11.8672 118.867C12.9219 117.813 13.9375 117.148 15.3047 116.602C19.25 115.039 28.625 115.391 33 115.391ZM63 140C63 135.859 63.0391 131.758 62.8047 127.617C62.5703 122.812 61.4766 118.555 57.9609 115.039C54.4453 111.523 50.1875 110.43 45.3828 110.195C41.2422 109.961 37.1406 110 33 110C28.8594 110 24.7578 109.961 20.6172 110.195C15.8125 110.43 11.5547 111.523 8.03906 115.039C4.52344 118.555 3.42969 122.812 3.19531 127.617C2.96094 131.758 3 135.859 3 140C3 144.141 2.96094 148.242 3.19531 152.383C3.42969 157.188 4.52344 161.445 8.03906 164.961C11.5547 168.477 15.8125 169.57 20.6172 169.805C24.7578 170.039 28.8594 170 33 170C37.1406 170 41.2422 170.039 45.3828 169.805C50.1875 169.57 54.4453 168.477 57.9609 164.961C61.4766 161.445 62.5703 157.188 62.8047 152.383C63.0391 148.242 63 144.141 63 140Z" fill="#58FFD4"/>
<path d="M97 110C80.4375 110 67 123.438 67 140C67 153.242 75.5938 164.492 87.5078 168.477C89.0312 168.75 89.5781 167.812 89.5781 167.031C89.5781 166.289 89.5391 163.945 89.5391 161.445C89.5391 161.445 81.1797 163.242 79.4219 157.891C79.4219 157.891 78.0547 154.414 76.1016 153.516C76.1016 153.516 73.3672 151.641 76.2969 151.68C76.2969 151.68 79.2656 151.914 80.9063 154.766C83.5234 159.375 87.8984 158.047 89.6172 157.266C89.8906 155.352 90.6719 154.023 91.5313 153.242C84.8516 152.5 77.8594 149.922 77.8594 138.437C77.8594 135.156 79.0312 132.5 80.9453 130.391C80.6328 129.609 79.6172 126.563 81.2578 122.422C83.7578 121.641 89.5 125.508 89.5 125.508C91.8828 124.844 94.4609 124.492 97 124.492C99.5391 124.492 102.117 124.844 104.5 125.508C104.5 125.508 110.242 121.641 112.742 122.422C114.383 126.563 113.367 129.609 113.055 130.391C114.969 132.5 116.141 135.156 116.141 138.437C116.141 149.961 109.109 152.5 102.43 153.242C103.523 154.18 104.461 155.977 104.461 158.789C104.461 162.812 104.422 166.055 104.422 167.031C104.422 167.812 104.969 168.75 106.492 168.477C118.406 164.492 127 153.242 127 140C127 123.438 113.563 110 97 110ZM78.3672 153.086C78.2891 153.242 78.0547 153.281 77.8594 153.164C77.625 153.047 77.5078 152.852 77.5859 152.695C77.6641 152.578 77.8594 152.539 78.0938 152.617C78.3281 152.734 78.4453 152.93 78.3672 153.086ZM79.5781 154.414C79.4219 154.57 79.1484 154.492 78.9531 154.297C78.7578 154.062 78.7188 153.789 78.875 153.672C79.0312 153.516 79.3047 153.594 79.5 153.789C79.6953 154.023 79.7344 154.297 79.5781 154.414ZM80.75 156.172C80.5938 156.289 80.2813 156.172 80.0859 155.898C79.8906 155.625 79.8906 155.313 80.0859 155.195C80.2813 155.039 80.5938 155.156 80.75 155.43C80.9453 155.703 80.9453 156.016 80.75 156.172ZM82.3906 157.812C82.2344 158.008 81.8828 157.969 81.6094 157.695C81.3359 157.461 81.2578 157.109 81.4531 156.953C81.6094 156.758 81.9609 156.797 82.2344 157.07C82.4688 157.305 82.5469 157.656 82.3906 157.812ZM84.6172 158.789C84.5391 159.023 84.1875 159.141 83.875 159.023C83.5234 158.945 83.2891 158.672 83.3672 158.438C83.4453 158.203 83.7969 158.086 84.1094 158.164C84.4609 158.281 84.6953 158.555 84.6172 158.789ZM87.0781 158.984C87.0781 159.219 86.8047 159.414 86.4531 159.414C86.0625 159.453 85.7891 159.258 85.7891 158.984C85.7891 158.75 86.0625 158.555 86.4141 158.555C86.7656 158.516 87.0781 158.711 87.0781 158.984ZM89.3438 158.594C89.3828 158.828 89.1484 159.063 88.7969 159.141C88.4453 159.219 88.1328 159.063 88.0938 158.828C88.0547 158.555 88.2891 158.32 88.6406 158.242C88.9922 158.203 89.3047 158.359 89.3438 158.594Z" fill="#58FFD4"/>
<path d="M194.281 120.938C192.016 121.914 189.555 122.617 187.016 122.891C189.633 121.328 191.625 118.867 192.562 115.937C190.141 117.383 187.406 118.437 184.555 118.984C182.25 116.523 178.969 115 175.336 115C168.344 115 162.719 120.664 162.719 127.617C162.719 128.594 162.836 129.57 163.031 130.508C152.562 129.961 143.227 124.961 137.016 117.305C135.922 119.18 135.297 121.328 135.297 123.672C135.297 128.047 137.523 131.914 140.922 134.18C138.852 134.102 136.898 133.516 135.219 132.578C135.219 132.617 135.219 132.695 135.219 132.734C135.219 138.867 139.555 143.945 145.336 145.117C144.281 145.391 143.148 145.547 142.016 145.547C141.195 145.547 140.414 145.469 139.633 145.352C141.234 150.352 145.883 153.984 151.43 154.102C147.094 157.5 141.664 159.492 135.766 159.492C134.711 159.492 133.734 159.453 132.719 159.336C138.305 162.93 144.945 165 152.094 165C175.297 165 187.992 145.781 187.992 129.102C187.992 128.555 187.992 128.008 187.953 127.461C190.414 125.664 192.562 123.438 194.281 120.938Z" fill="#58FFD4"/>
<path d="M209.258 160.234V133.125H218.281V160.234H209.258ZM218.867 124.766C218.867 127.344 216.914 129.453 213.75 129.453H213.711C210.664 129.453 208.711 127.344 208.711 124.766C208.711 122.109 210.742 120.078 213.828 120.078C216.914 120.078 218.828 122.109 218.867 124.766ZM241.719 160.234V145.742C241.719 142.07 240.43 139.609 237.188 139.609C234.688 139.609 233.203 141.289 232.539 142.891C232.305 143.477 232.266 144.297 232.266 145.078V160.234H223.242C223.359 135.664 223.242 133.125 223.242 133.125H232.266V137.07H232.188C233.359 135.195 235.508 132.5 240.352 132.5C246.289 132.5 250.742 136.367 250.742 144.687V160.234H241.719ZM260 121.25C260 115.039 254.961 110 248.75 110H211.25C205.039 110 200 115.039 200 121.25V158.75C200 164.961 205.039 170 211.25 170H248.75C254.961 170 260 164.961 260 158.75V121.25Z" fill="#58FFD4"/>
</svg>
